<mxfile host="app.diagrams.net" modified="2023-10-29T14:37:10.775Z" agent="Mozilla/5.0 (X11; Linux x86_64) AppleWebKit/537.36 (KHTML, like Gecko) Chrome/102.0.5005.99 Safari/537.36" etag="cO_SBW4RdmitfTp2_4Y6" version="22.0.8" type="device">
  <diagram id="6u4Sst_KDYEEMCj15dRq" name="Page-1">
    <mxGraphModel dx="1434" dy="1878" grid="1" gridSize="10" guides="1" tooltips="1" connect="1" arrows="1" fold="1" page="1" pageScale="1" pageWidth="850" pageHeight="1100" math="0" shadow="0">
      <root>
        <mxCell id="0" />
        <mxCell id="1" parent="0" />
        <mxCell id="d6xKdbgU7YlNVhFq98YF-2" value="do nothing" style="rounded=1;whiteSpace=wrap;html=1;fillColor=#ffe6cc;strokeColor=#d79b00;" parent="1" vertex="1">
          <mxGeometry x="160" y="300" width="70" height="20" as="geometry" />
        </mxCell>
        <mxCell id="d6xKdbgU7YlNVhFq98YF-5" value="Is dead" style="endArrow=classic;html=1;rounded=0;entryX=0.5;entryY=0;entryDx=0;entryDy=0;exitX=0.5;exitY=1;exitDx=0;exitDy=0;" parent="1" source="d6xKdbgU7YlNVhFq98YF-14" target="d6xKdbgU7YlNVhFq98YF-2" edge="1">
          <mxGeometry width="50" height="50" relative="1" as="geometry">
            <mxPoint x="380" y="250" as="sourcePoint" />
            <mxPoint x="540" y="310" as="targetPoint" />
          </mxGeometry>
        </mxCell>
        <mxCell id="d6xKdbgU7YlNVhFq98YF-9" style="edgeStyle=orthogonalEdgeStyle;rounded=0;orthogonalLoop=1;jettySize=auto;html=1;exitX=0;exitY=0.5;exitDx=0;exitDy=0;exitPerimeter=0;entryX=1;entryY=0.5;entryDx=0;entryDy=0;" parent="1" source="d6xKdbgU7YlNVhFq98YF-6" target="d6xKdbgU7YlNVhFq98YF-13" edge="1">
          <mxGeometry relative="1" as="geometry">
            <mxPoint x="380" y="110" as="targetPoint" />
          </mxGeometry>
        </mxCell>
        <mxCell id="d6xKdbgU7YlNVhFq98YF-6" value="Urlbucket" style="shape=cylinder3;whiteSpace=wrap;html=1;boundedLbl=1;backgroundOutline=1;size=15;fillColor=#ffe6cc;strokeColor=#d79b00;" parent="1" vertex="1">
          <mxGeometry x="710" y="60" width="60" height="80" as="geometry" />
        </mxCell>
        <mxCell id="d6xKdbgU7YlNVhFq98YF-11" style="edgeStyle=orthogonalEdgeStyle;rounded=0;orthogonalLoop=1;jettySize=auto;html=1;exitX=0.5;exitY=1;exitDx=0;exitDy=0;entryX=0.5;entryY=0;entryDx=0;entryDy=0;" parent="1" source="d6xKdbgU7YlNVhFq98YF-13" target="d6xKdbgU7YlNVhFq98YF-14" edge="1">
          <mxGeometry relative="1" as="geometry">
            <mxPoint x="380" y="140" as="sourcePoint" />
            <mxPoint x="400" y="180" as="targetPoint" />
          </mxGeometry>
        </mxCell>
        <mxCell id="d6xKdbgU7YlNVhFq98YF-13" value="&lt;div&gt;Get Url &lt;br&gt;&lt;/div&gt;&lt;div&gt;from bucket&lt;/div&gt;" style="rhombus;whiteSpace=wrap;html=1;fillColor=#ffe6cc;strokeColor=#d79b00;" parent="1" vertex="1">
          <mxGeometry x="340" y="60" width="80" height="80" as="geometry" />
        </mxCell>
        <mxCell id="d6xKdbgU7YlNVhFq98YF-14" value="Alivecheck" style="rhombus;whiteSpace=wrap;html=1;fillColor=#ffe6cc;strokeColor=#d79b00;" parent="1" vertex="1">
          <mxGeometry x="340" y="180" width="80" height="80" as="geometry" />
        </mxCell>
        <mxCell id="d6xKdbgU7YlNVhFq98YF-17" value="&lt;font style=&quot;font-size: 16px&quot;&gt;&lt;b&gt;Begin&lt;/b&gt;&lt;/font&gt;" style="shape=process;whiteSpace=wrap;html=1;backgroundOutline=1;" parent="1" vertex="1">
          <mxGeometry x="360" y="-120" width="120" height="60" as="geometry" />
        </mxCell>
        <mxCell id="d6xKdbgU7YlNVhFq98YF-18" value="As long as there are urls in bucket" style="swimlane;fillColor=#ffe6cc;strokeColor=#d79b00;" parent="1" vertex="1">
          <mxGeometry x="20" y="10" width="800" height="920" as="geometry" />
        </mxCell>
        <mxCell id="d6xKdbgU7YlNVhFq98YF-29" value="As long as there are guesses in wordlist" style="swimlane;fillColor=#dae8fc;strokeColor=#6c8ebf;" parent="d6xKdbgU7YlNVhFq98YF-18" vertex="1">
          <mxGeometry x="340" y="300" width="450" height="570" as="geometry" />
        </mxCell>
        <mxCell id="d6xKdbgU7YlNVhFq98YF-21" value="&lt;div&gt;Test first &lt;br&gt;&lt;/div&gt;&lt;div&gt;wordlist guess&lt;/div&gt;" style="rhombus;whiteSpace=wrap;html=1;fillColor=#dae8fc;strokeColor=#6c8ebf;" parent="d6xKdbgU7YlNVhFq98YF-29" vertex="1">
          <mxGeometry x="175" y="40" width="100" height="100" as="geometry" />
        </mxCell>
        <mxCell id="d6xKdbgU7YlNVhFq98YF-20" value="Fakecheck" style="rhombus;whiteSpace=wrap;html=1;fillColor=#dae8fc;strokeColor=#6c8ebf;" parent="d6xKdbgU7YlNVhFq98YF-29" vertex="1">
          <mxGeometry x="65" y="250" width="80" height="80" as="geometry" />
        </mxCell>
        <mxCell id="d6xKdbgU7YlNVhFq98YF-22" value="If 200 response" style="endArrow=classic;html=1;rounded=0;exitX=0.5;exitY=1;exitDx=0;exitDy=0;entryX=0.5;entryY=0;entryDx=0;entryDy=0;" parent="d6xKdbgU7YlNVhFq98YF-29" source="d6xKdbgU7YlNVhFq98YF-21" target="d6xKdbgU7YlNVhFq98YF-35" edge="1">
          <mxGeometry width="50" height="50" relative="1" as="geometry">
            <mxPoint x="-110" y="90" as="sourcePoint" />
            <mxPoint x="130" y="150" as="targetPoint" />
          </mxGeometry>
        </mxCell>
        <mxCell id="d6xKdbgU7YlNVhFq98YF-24" value="do nothing" style="rounded=1;whiteSpace=wrap;html=1;fillColor=#dae8fc;strokeColor=#6c8ebf;" parent="d6xKdbgU7YlNVhFq98YF-29" vertex="1">
          <mxGeometry x="15" y="400" width="70" height="20" as="geometry" />
        </mxCell>
        <mxCell id="d6xKdbgU7YlNVhFq98YF-23" value="If true" style="endArrow=classic;html=1;rounded=0;exitX=0.5;exitY=1;exitDx=0;exitDy=0;entryX=0.5;entryY=0;entryDx=0;entryDy=0;" parent="d6xKdbgU7YlNVhFq98YF-29" source="d6xKdbgU7YlNVhFq98YF-20" target="d6xKdbgU7YlNVhFq98YF-24" edge="1">
          <mxGeometry width="50" height="50" relative="1" as="geometry">
            <mxPoint x="25" y="310" as="sourcePoint" />
            <mxPoint x="-5" y="360" as="targetPoint" />
          </mxGeometry>
        </mxCell>
        <mxCell id="d6xKdbgU7YlNVhFq98YF-28" value="&lt;div&gt;Save &lt;br&gt;&lt;/div&gt;&lt;div&gt;url + guess&lt;/div&gt;&lt;div&gt; to findinglist&lt;/div&gt;" style="rhombus;whiteSpace=wrap;html=1;fillColor=#dae8fc;strokeColor=#6c8ebf;" parent="d6xKdbgU7YlNVhFq98YF-29" vertex="1">
          <mxGeometry x="185" y="365" width="90" height="90" as="geometry" />
        </mxCell>
        <mxCell id="d6xKdbgU7YlNVhFq98YF-26" value="" style="endArrow=classic;html=1;rounded=0;exitX=0.5;exitY=1;exitDx=0;exitDy=0;entryX=0;entryY=0;entryDx=0;entryDy=0;" parent="d6xKdbgU7YlNVhFq98YF-29" source="d6xKdbgU7YlNVhFq98YF-20" target="d6xKdbgU7YlNVhFq98YF-28" edge="1">
          <mxGeometry width="50" height="50" relative="1" as="geometry">
            <mxPoint x="-105" y="290" as="sourcePoint" />
            <mxPoint x="220" y="360" as="targetPoint" />
          </mxGeometry>
        </mxCell>
        <mxCell id="d6xKdbgU7YlNVhFq98YF-27" value="If false" style="edgeLabel;html=1;align=center;verticalAlign=middle;resizable=0;points=[];" parent="d6xKdbgU7YlNVhFq98YF-26" vertex="1" connectable="0">
          <mxGeometry x="-0.3846" relative="1" as="geometry">
            <mxPoint x="9" y="15" as="offset" />
          </mxGeometry>
        </mxCell>
        <mxCell id="d6xKdbgU7YlNVhFq98YF-31" value="&lt;div&gt;Test next &lt;br&gt;&lt;/div&gt;&lt;div&gt;wordlist guess&lt;/div&gt;" style="rhombus;whiteSpace=wrap;html=1;fillColor=#dae8fc;strokeColor=#6c8ebf;" parent="d6xKdbgU7YlNVhFq98YF-29" vertex="1">
          <mxGeometry x="310" y="170" width="100" height="100" as="geometry" />
        </mxCell>
        <mxCell id="d6xKdbgU7YlNVhFq98YF-32" value="If other response" style="endArrow=classic;html=1;rounded=0;exitX=0.5;exitY=1;exitDx=0;exitDy=0;entryX=0.5;entryY=0;entryDx=0;entryDy=0;" parent="d6xKdbgU7YlNVhFq98YF-29" source="d6xKdbgU7YlNVhFq98YF-21" target="d6xKdbgU7YlNVhFq98YF-31" edge="1">
          <mxGeometry width="50" height="50" relative="1" as="geometry">
            <mxPoint x="235" y="150" as="sourcePoint" />
            <mxPoint x="110" y="180" as="targetPoint" />
          </mxGeometry>
        </mxCell>
        <mxCell id="d6xKdbgU7YlNVhFq98YF-35" value="&lt;font style=&quot;font-size: 12px&quot;&gt;FAKE = false?&lt;br&gt;&lt;/font&gt;" style="shape=hexagon;perimeter=hexagonPerimeter2;whiteSpace=wrap;html=1;fixedSize=1;fontSize=16;fillColor=#dae8fc;strokeColor=#6c8ebf;" parent="d6xKdbgU7YlNVhFq98YF-29" vertex="1">
          <mxGeometry x="120" y="170" width="90" height="60" as="geometry" />
        </mxCell>
        <mxCell id="d6xKdbgU7YlNVhFq98YF-36" value="" style="endArrow=classic;html=1;rounded=0;fontSize=12;exitX=0;exitY=0.75;exitDx=0;exitDy=0;entryX=0.5;entryY=0;entryDx=0;entryDy=0;" parent="d6xKdbgU7YlNVhFq98YF-29" source="d6xKdbgU7YlNVhFq98YF-35" target="d6xKdbgU7YlNVhFq98YF-20" edge="1">
          <mxGeometry width="50" height="50" relative="1" as="geometry">
            <mxPoint x="-110" y="200" as="sourcePoint" />
            <mxPoint x="-60" y="150" as="targetPoint" />
          </mxGeometry>
        </mxCell>
        <mxCell id="d6xKdbgU7YlNVhFq98YF-37" value="No" style="edgeLabel;html=1;align=center;verticalAlign=middle;resizable=0;points=[];fontSize=12;" parent="d6xKdbgU7YlNVhFq98YF-36" vertex="1" connectable="0">
          <mxGeometry x="0.1951" y="-2" relative="1" as="geometry">
            <mxPoint y="1" as="offset" />
          </mxGeometry>
        </mxCell>
        <mxCell id="d6xKdbgU7YlNVhFq98YF-38" value="" style="endArrow=classic;html=1;rounded=0;fontSize=12;exitX=0.625;exitY=1;exitDx=0;exitDy=0;entryX=0.5;entryY=0;entryDx=0;entryDy=0;" parent="d6xKdbgU7YlNVhFq98YF-29" source="d6xKdbgU7YlNVhFq98YF-35" target="d6xKdbgU7YlNVhFq98YF-28" edge="1">
          <mxGeometry width="50" height="50" relative="1" as="geometry">
            <mxPoint x="-110" y="200" as="sourcePoint" />
            <mxPoint x="-60" y="150" as="targetPoint" />
          </mxGeometry>
        </mxCell>
        <mxCell id="d6xKdbgU7YlNVhFq98YF-40" value="Yes" style="edgeLabel;html=1;align=center;verticalAlign=middle;resizable=0;points=[];fontSize=12;" parent="d6xKdbgU7YlNVhFq98YF-38" vertex="1" connectable="0">
          <mxGeometry x="-0.2064" y="2" relative="1" as="geometry">
            <mxPoint x="-1" as="offset" />
          </mxGeometry>
        </mxCell>
        <mxCell id="d6xKdbgU7YlNVhFq98YF-39" value="" style="endArrow=classic;html=1;rounded=0;fontSize=12;exitX=1;exitY=0.5;exitDx=0;exitDy=0;entryX=0.5;entryY=1;entryDx=0;entryDy=0;" parent="d6xKdbgU7YlNVhFq98YF-29" source="d6xKdbgU7YlNVhFq98YF-42" target="d6xKdbgU7YlNVhFq98YF-31" edge="1">
          <mxGeometry width="50" height="50" relative="1" as="geometry">
            <mxPoint x="-110" y="200" as="sourcePoint" />
            <mxPoint x="-60" y="150" as="targetPoint" />
            <Array as="points">
              <mxPoint x="360" y="455" />
            </Array>
          </mxGeometry>
        </mxCell>
        <mxCell id="d6xKdbgU7YlNVhFq98YF-43" value="No" style="edgeLabel;html=1;align=center;verticalAlign=middle;resizable=0;points=[];fontSize=12;" parent="d6xKdbgU7YlNVhFq98YF-39" vertex="1" connectable="0">
          <mxGeometry x="-0.5535" y="-2" relative="1" as="geometry">
            <mxPoint as="offset" />
          </mxGeometry>
        </mxCell>
        <mxCell id="d6xKdbgU7YlNVhFq98YF-42" value="Wordlist&lt;br&gt;done" style="shape=hexagon;perimeter=hexagonPerimeter2;whiteSpace=wrap;html=1;fixedSize=1;fontSize=16;fillColor=#dae8fc;strokeColor=#6c8ebf;" parent="d6xKdbgU7YlNVhFq98YF-29" vertex="1">
          <mxGeometry x="185" y="490" width="90" height="60" as="geometry" />
        </mxCell>
        <mxCell id="d6xKdbgU7YlNVhFq98YF-19" value="" style="endArrow=classic;html=1;rounded=0;exitX=0.5;exitY=1;exitDx=0;exitDy=0;entryX=0.5;entryY=0;entryDx=0;entryDy=0;" parent="1" source="d6xKdbgU7YlNVhFq98YF-17" target="d6xKdbgU7YlNVhFq98YF-18" edge="1">
          <mxGeometry width="50" height="50" relative="1" as="geometry">
            <mxPoint x="720" y="410" as="sourcePoint" />
            <mxPoint x="770" y="360" as="targetPoint" />
          </mxGeometry>
        </mxCell>
        <mxCell id="d6xKdbgU7YlNVhFq98YF-4" value="" style="endArrow=classic;html=1;rounded=0;exitX=0.5;exitY=1;exitDx=0;exitDy=0;entryX=0.516;entryY=0.002;entryDx=0;entryDy=0;entryPerimeter=0;" parent="1" source="d6xKdbgU7YlNVhFq98YF-14" target="d6xKdbgU7YlNVhFq98YF-29" edge="1">
          <mxGeometry width="50" height="50" relative="1" as="geometry">
            <mxPoint x="430" y="230" as="sourcePoint" />
            <mxPoint x="580" y="210" as="targetPoint" />
          </mxGeometry>
        </mxCell>
        <mxCell id="d6xKdbgU7YlNVhFq98YF-15" value="Is alive" style="edgeLabel;html=1;align=center;verticalAlign=middle;resizable=0;points=[];" parent="d6xKdbgU7YlNVhFq98YF-4" vertex="1" connectable="0">
          <mxGeometry x="-0.148" y="3" relative="1" as="geometry">
            <mxPoint as="offset" />
          </mxGeometry>
        </mxCell>
        <mxCell id="d6xKdbgU7YlNVhFq98YF-33" value="" style="endArrow=classic;html=1;rounded=0;fontSize=16;entryX=0;entryY=0.5;entryDx=0;entryDy=0;exitX=0.5;exitY=1;exitDx=0;exitDy=0;" parent="1" source="d6xKdbgU7YlNVhFq98YF-24" target="d6xKdbgU7YlNVhFq98YF-13" edge="1">
          <mxGeometry width="50" height="50" relative="1" as="geometry">
            <mxPoint x="405" y="680" as="sourcePoint" />
            <mxPoint x="300" y="470" as="targetPoint" />
            <Array as="points">
              <mxPoint x="410" y="750" />
              <mxPoint x="50" y="750" />
              <mxPoint x="50" y="100" />
            </Array>
          </mxGeometry>
        </mxCell>
        <mxCell id="d6xKdbgU7YlNVhFq98YF-34" value="" style="endArrow=classic;html=1;rounded=0;fontSize=16;exitX=0.5;exitY=1;exitDx=0;exitDy=0;" parent="1" source="d6xKdbgU7YlNVhFq98YF-2" edge="1">
          <mxGeometry width="50" height="50" relative="1" as="geometry">
            <mxPoint x="415" y="660" as="sourcePoint" />
            <mxPoint x="350" y="110" as="targetPoint" />
            <Array as="points">
              <mxPoint x="195" y="350" />
              <mxPoint x="70" y="350" />
              <mxPoint x="70" y="110" />
            </Array>
          </mxGeometry>
        </mxCell>
        <mxCell id="d6xKdbgU7YlNVhFq98YF-41" value="&lt;font style=&quot;font-size: 16px&quot;&gt;End&lt;br&gt;Display findings.txt&lt;/font&gt;" style="shape=process;whiteSpace=wrap;html=1;backgroundOutline=1;" parent="1" vertex="1">
          <mxGeometry x="355" y="1000" width="130" height="70" as="geometry" />
        </mxCell>
        <mxCell id="d6xKdbgU7YlNVhFq98YF-44" value="" style="endArrow=classic;html=1;rounded=0;fontSize=12;exitX=0;exitY=0.5;exitDx=0;exitDy=0;entryX=0;entryY=1;entryDx=0;entryDy=0;" parent="1" source="d6xKdbgU7YlNVhFq98YF-42" target="d6xKdbgU7YlNVhFq98YF-13" edge="1">
          <mxGeometry width="50" height="50" relative="1" as="geometry">
            <mxPoint x="360" y="570" as="sourcePoint" />
            <mxPoint x="290" y="45" as="targetPoint" />
            <Array as="points">
              <mxPoint x="90" y="830" />
              <mxPoint x="90" y="120" />
            </Array>
          </mxGeometry>
        </mxCell>
        <mxCell id="d6xKdbgU7YlNVhFq98YF-45" value="Yes" style="edgeLabel;html=1;align=center;verticalAlign=middle;resizable=0;points=[];fontSize=12;" parent="d6xKdbgU7YlNVhFq98YF-44" vertex="1" connectable="0">
          <mxGeometry x="-0.7937" y="1" relative="1" as="geometry">
            <mxPoint as="offset" />
          </mxGeometry>
        </mxCell>
        <mxCell id="d6xKdbgU7YlNVhFq98YF-46" value="" style="endArrow=classic;html=1;rounded=0;fontSize=12;entryX=0.5;entryY=0;entryDx=0;entryDy=0;exitX=0.5;exitY=1;exitDx=0;exitDy=0;" parent="1" source="d6xKdbgU7YlNVhFq98YF-18" target="d6xKdbgU7YlNVhFq98YF-41" edge="1">
          <mxGeometry width="50" height="50" relative="1" as="geometry">
            <mxPoint x="360" y="860" as="sourcePoint" />
            <mxPoint x="410" y="810" as="targetPoint" />
          </mxGeometry>
        </mxCell>
      </root>
    </mxGraphModel>
  </diagram>
</mxfile>
